<svg xmlns="http://www.w3.org/2000/svg" viewBox="0 0 419.56 508.15"><defs><style>.cls-1{fill:#8a221b;}.cls-1,.cls-3{fill-rule:evenodd;}.cls-2,.cls-3{fill:#ab8b2f;}.cls-4{fill:none;}</style></defs><title>toddredo</title><g id="banner_background" data-name="banner background"><path class="cls-1" d="M497.06,372.17c-.32-.77-.6-1.47-.87-2.13-.58-1.44-1.08-2.68-1.67-4q-2.88-6.32-5.77-12.63c-5-10.93-10.18-22.22-15.07-33.38a4.19,4.19,0,0,1-.13-2.55c5-11.85,10.29-23.85,15.41-35.45q2.87-6.51,5.73-13c.53-1.19,1-2.35,1.45-3.68.24-.65.5-1.35.81-2.15a6.34,6.34,0,0,0-5.92-8.62H457.25q0-5.77,0-11.54c0-11.22,0-22.81.1-34.2.09-7-4-10.22-7.07-12.06-51.3-30.64-103.65-62-155.61-93.29a12.17,12.17,0,0,0-13.66,0L251.4,121.26a28.72,28.72,0,0,0-1.51-6.51c7.69-4.9,7.39-14.36,7.26-18.63-.09-3-.49-6.51-2.69-9.46a13.61,13.61,0,0,0-3.59-3.13,8.75,8.75,0,0,1-1.76-1.37c-1-1.19-1.93-2.48-2.88-3.81a3.49,3.49,0,0,0,1.36-.51,9,9,0,0,0,3.85-7.1c.61-8.06-.79-14.15-4.4-19.15a4.19,4.19,0,0,1-.55-3.38c.1-.51.11-.59.81-.8a3.5,3.5,0,0,0-1-6.85H246a14.76,14.76,0,0,0-2.37.17q0-.35,0-.71c-.36-5.18-3.23-8.92-7.12-9.45A3.5,3.5,0,0,0,233.24,27c-.4,0-.76,0-1.1,0a6.42,6.42,0,0,0-6.17,3.5,3.5,3.5,0,0,0-1.47.73,16.75,16.75,0,0,0-5.56,10.74c-.27,1.79-.45,4.41,1.15,6.56l.22.28a8.85,8.85,0,0,0-2.31,6,28.61,28.61,0,0,0,.08,4.48,4.65,4.65,0,0,1-.63,3.19,12.33,12.33,0,0,0-1.42,10c.69,2.76,2,4.64,3.85,5.56a3.38,3.38,0,0,0,2.52.22L220,81.58A24.34,24.34,0,0,0,213.95,92a21.3,21.3,0,0,0-.37,5.35v.48c.1,5.64,1.19,8.69,4.65,13.06l4.34,5.5,1.57,2c-1.34,2-1,4.84-.5,7.5a21.17,21.17,0,0,0,1.59,4.49c.22.5.44,1,.65,1.5l.79,2a7.27,7.27,0,0,0,.27,2.09l-102,61.16a12.67,12.67,0,0,0-6.57,11.81c.09,11.39.08,23,.06,34.21q0,5.89,0,11.78H84.57a6.34,6.34,0,0,0-5.87,8.73l.84,2.08c.47,1.17.84,2.09,1.24,3q2.69,6.13,5.4,12.26c5.29,12,10.77,24.42,16,36.66a3.59,3.59,0,0,1,0,2.12c-4.33,9.9-8.93,19.94-13.38,29.64q-2.84,6.19-5.66,12.37c-1,2.21-2,4.45-3,6.83-.5,1.18-1,2.43-1.61,3.75a6.34,6.34,0,0,0,5.82,8.85h34.11q0,3.78,0,7.53c0,13,0,25.31-.1,37.82-.06,5.46,2.31,9.54,7.24,12.5,15,8.93,30.09,18,45.47,27.16H147.17l19.41,22.52-19.8,22h45.79v9.33h70.87c.77.48,22.19,15,23.36,15h2.14c1.35,0,22.36-14.74,22.81-15h71.39v-9.33h45l-19.8-22,19.41-22.52H404.57q22.8-13.65,45.54-27.23c5-3,7.28-6.95,7.22-12.48-.13-11.37-.11-22.94-.09-34.14q0-5.71,0-11.41h34a6.34,6.34,0,0,0,5.86-8.76Z" transform="translate(-77.98 -26.92)"/></g><g id="logo_banner" data-name="logo banner"><path class="cls-2" d="M156.7,401v-.08c0-2.69,1.68-4.55,3.9-4.55a3.69,3.69,0,0,1,2.71,1.09l-.58.73a3,3,0,0,0-2.13-.93c-1.64,0-2.9,1.5-2.9,3.65v.05c0,2.19,1.26,3.67,2.9,3.67a3,3,0,0,0,2.2-1l.57.66a3.8,3.8,0,0,1-2.82,1.22C158.34,405.48,156.7,403.67,156.7,401Z" transform="translate(-77.98 -26.92)"/><path class="cls-2" d="M164.34,401v-.1c0-2.62,1.58-4.55,3.84-4.55s3.81,1.92,3.81,4.53v.1c0,2.62-1.56,4.55-3.83,4.55S164.34,403.58,164.34,401Zm6.67,0v-.09c0-2.15-1.21-3.67-2.85-3.67s-2.83,1.51-2.83,3.66v.09c0,2.15,1.21,3.67,2.85,3.67S171,403.11,171,401Z" transform="translate(-77.98 -26.92)"/><path class="cls-2" d="M173.88,396.46h.9l4.65,7v-7h.94v8.9h-.8l-4.77-7.17v7.17h-.93Z" transform="translate(-77.98 -26.92)"/><path class="cls-2" d="M182,404.23l.6-.73a3.53,3.53,0,0,0,2.5,1.11,1.59,1.59,0,0,0,1.78-1.5h0c0-.74-.36-1.21-2-1.78-1.84-.69-2.57-1.35-2.57-2.61v0a2.46,2.46,0,0,1,2.68-2.35,3.85,3.85,0,0,1,2.67,1l-.57.74a3.19,3.19,0,0,0-2.14-.87,1.5,1.5,0,0,0-1.68,1.38v0c0,.78.39,1.22,2.07,1.83s2.47,1.4,2.47,2.58v0a2.52,2.52,0,0,1-2.76,2.43A4.37,4.37,0,0,1,182,404.23Z" transform="translate(-77.98 -26.92)"/><path class="cls-2" d="M191.37,397.35h-2.49v-.89h6v.89h-2.51v8h-1Z" transform="translate(-77.98 -26.92)"/><path class="cls-2" d="M198.26,396.41h.94l3.39,8.95h-1l-.86-2.34h-4l-.86,2.34h-1Zm2.13,5.75-1.68-4.51L197,402.15Z" transform="translate(-77.98 -26.92)"/><path class="cls-2" d="M204.17,396.46h3a3.2,3.2,0,0,1,2.34.83,2.53,2.53,0,0,1,.7,1.83v0a2.53,2.53,0,0,1-2.11,2.57l2.39,3.65h-1.14l-2.24-3.46h-2v3.46h-1ZM207,401c1.45,0,2.25-.72,2.25-1.85v0c0-1.17-.81-1.82-2.15-1.82h-2V401Z" transform="translate(-77.98 -26.92)"/><path class="cls-2" d="M212.16,396.46h5.43v.88h-4.47v3.1h4v.87h-4v3.17h4.54v.88h-5.49Z" transform="translate(-77.98 -26.92)"/><path class="cls-2" d="M370.15,396.36h1l3.24,4.85,3.24-4.85h1v8.9h-1v-7.21l-3.24,4.77h-.05l-3.24-4.75v7.19h-1Z" transform="translate(-77.98 -26.92)"/><path class="cls-2" d="M383.6,396.36h1l3.24,4.85,3.24-4.85h1v8.9h-1v-7.21l-3.24,4.77h0l-3.24-4.75v7.19h-1Z" transform="translate(-77.98 -26.92)"/><path class="cls-2" d="M396.29,396.36h1.12l3.17,7.66,3.18-7.66h1.08l-3.83,9h-.89Z" transform="translate(-77.98 -26.92)"/><path class="cls-2" d="M409.09,396.36h1v8.9h-1Z" transform="translate(-77.98 -26.92)"/><path class="cls-2" d="M415.21,396.36h1v8.9h-1Z" transform="translate(-77.98 -26.92)"/><path class="cls-3" d="M256.06,261.68c.41-5.72,1-11.39,4-16.61-.24,4.61-.32,9-.81,13.43-.14,1.25-1.49,2.36-2.29,3.54Z" transform="translate(-77.98 -26.92)"/><path class="cls-3" d="M263,221.63l-9.52,3.16,5.08-15.27-.59-.22c-2.34,5.13-4.8,10.21-6.91,15.43-.45,1.12.37,2.76.62,4.16.22,1.24.46,2.47.8,4.31.33-2.11.58-3.65.83-5.21l6.59-3.16.44.42L238.84,253a19.68,19.68,0,0,1,.15-4.33c1.77-11.22,7.34-20.83,12.93-30.44,1.23-2.12,2.18-4.4,3.27-6.6-7,6.77-14.9,21.27-16.38,30.07-.52,3.05-1.16,11.29-.71,12.8l-1,2.24c-.21-.1-.41-.22-.61-.33l.13,1.67,2.52,4.8.12-.16c.67-.88.66-2.27,1.06-3.38.65-1.8,1.06-3.79,2.12-5.33,5.77-8.39,11.76-16.64,17.57-25,1.4-2,2.43-4.29,3.63-6.45Z" transform="translate(-77.98 -26.92)"/><path class="cls-3" d="M263.88,235.64c-1,1.74-2,3.49-3.06,5.22a56.89,56.89,0,0,0-7.77,23.22c-.35,3.16-3.14,6.05-5.13,8.89C247.93,258.23,255.62,246.75,263.88,235.64Z" transform="translate(-77.98 -26.92)"/><path class="cls-3" d="M346.09,406.4v-3.2c0,.82,8.41,2.12,9.36,1.82,3.25-1,4.18-7.31,2.21-9.92-2.28-3-7.07-.14-10.07-.27,1.32-.67,2.69-1.26,4-2,3.34-2,9.08,1.19,9.27,5.15.1,2.29.05,4.59,0,6.89,0,3.64-4.24,6-7.48,4.41C351.17,408.18,348.79,407.46,346.09,406.4Z" transform="translate(-77.98 -26.92)"/><path class="cls-3" d="M287.93,415.62a8.12,8.12,0,1,0,8,8.23A8.12,8.12,0,0,0,287.93,415.62Zm-.18,13.13a5,5,0,1,1,5.08-4.94A5,5,0,0,1,287.75,428.75Z" transform="translate(-77.98 -26.92)"/><polygon class="cls-3" points="244.86 384.3 223.91 395.78 220.16 394.79 222.04 391.4 244.86 384.3"/><polygon class="cls-3" points="210.66 435.39 207.97 411.64 210.31 408.55 212.73 411.57 210.66 435.39"/><polygon class="cls-3" points="184.51 426.01 202.82 410.66 203.26 406.81 199.42 407.34 184.51 426.01"/><path class="cls-3" d="M314.2,386.59l-.07-.05q-.92-.67-1.88-1.29l-.27-.18q-.87-.56-1.78-1.08l-.34-.2q-.91-.51-1.85-1l-.3-.15a44.4,44.4,0,0,0-6.78-2.68l-.62-.18c-.56-.16-1.12-.31-1.68-.45l-.81-.19-1.55-.32-.89-.16c-.51-.09-1-.16-1.55-.23l-.89-.11c-.56-.06-1.12-.11-1.68-.15l-.78-.06c-.82,0-1.65-.07-2.49-.07a44.59,44.59,0,1,0,44.68,44.59c0-.7,0-1.4-.05-2.1,0-.26,0-.52-.05-.78,0-.42-.06-.84-.1-1.26s-.07-.66-.11-1-.08-.65-.12-1-.11-.77-.17-1.16c0-.22-.08-.43-.12-.65a44.27,44.27,0,0,0-8.85-19.61A45.09,45.09,0,0,0,314.2,386.59ZM288,462.74a40.09,40.09,0,1,1,40.17-40.09A40.17,40.17,0,0,1,288,462.74Z" transform="translate(-77.98 -26.92)"/><path class="cls-3" d="M330.85,403a4.59,4.59,0,0,1-.75-.08,46.11,46.11,0,0,1,2,5.07l12.64-.78c-.1-1.34-.19-2.52-.32-4.16C339.85,403,335.35,403,330.85,403Z" transform="translate(-77.98 -26.92)"/><path class="cls-3" d="M341.75,395.46c-4.77,0-9.55-.14-14.32-.36-.57,0-1.27,0-2,0q.47.63.91,1.27h17.89c.27,2.23.52,4.41.77,6.57l.35,0c.16-2.82.31-5.64.46-8.14A23.9,23.9,0,0,1,341.75,395.46Z" transform="translate(-77.98 -26.92)"/><path class="cls-3" d="M252.4,434.47l3-.45h0l11.94-1.78,7.05-1.05,2.39-3.06-3.55-1.56-3.35,1.22,3-4.24-4.26-2c-1.91,3.07-3.92,6-6,8.88l-9.72,3.52q2-2.09,4-4.35a94.43,94.43,0,0,0,6.48-8.18c.39-.56.79-1.15,1.19-1.76L263,418.9c-.35.52-.69,1-1,1.51a92.58,92.58,0,0,1-6.36,8q-2.18,2.49-4.45,4.78.27.93.59,1.85Z" transform="translate(-77.98 -26.92)"/><path class="cls-3" d="M258.41,444.55a88.53,88.53,0,0,0,5.82-8.37c.37-.57.75-1.14,1.12-1.72l-6,.3-.29.38q-2.33,3-4.83,5.57a38.29,38.29,0,0,0,3.19,5C257.77,445.29,258.09,444.93,258.41,444.55Z" transform="translate(-77.98 -26.92)"/><path class="cls-3" d="M248,446.48a56.12,56.12,0,0,1-8.54,5.77,49,49,0,0,1-12.66,4.69c-5.29,1.19-10.59,2-15.89,2.81l-5,0a4.31,4.31,0,0,1,.69-.19,5.66,5.66,0,0,0,.83-.22c2.84-1.08,5.77-2,8.6-2.8l3.41-1a76,76,0,0,0,25.73-14.49c-.24-.55-.46-1.11-.68-1.67A74.59,74.59,0,0,1,219,453.89l-3.4,1c-2.86.86-5.82,1.74-8.71,2.84a4,4,0,0,1-.57.14,3.45,3.45,0,0,0-1.86.83s-1.47,1.64-1,2.74a1.18,1.18,0,0,0,1.13.71c1.69,0,3.38.05,5.08.09,2.22,0,4.51.1,6.78.1,8.37,0,17.35-.6,26.26-5a43.85,43.85,0,0,0,8.87-5.88A46.67,46.67,0,0,1,248,446.48Z" transform="translate(-77.98 -26.92)"/><path class="cls-3" d="M288,384.45c-.74,0-1.48,0-2.21.07a41.84,41.84,0,0,1,25.82,10.17c-2.88,0-12.46-.1-22.4-.21l-.85-8.47-.79,7.94-.94,9.44-.12,1.23-.52,5.16,2,2.62.34.44,1.59-2,2.45-.13.25-1.25,7.85-5.52-10.3.54-.86-8.64c11.15.11,21.48.22,22.67.26a2.42,2.42,0,0,1,.4.06l-2.85,2.33L294.19,411l-.26,2.11-.22,1.74,3.85-.48,3.4-4.16,20.66-1.12a3.89,3.89,0,0,1,1,1.73,37.7,37.7,0,0,1,.24,23.42l-21.16-7.67-3.55,1.56,2.38,3.06,22.23,3.32a38.74,38.74,0,0,1-11.27,17.22l-13.94-17.47-3.84-.53.43,3.85,17.11,14.35a37.3,37.3,0,0,1-15.46,8c-.71.18-1.43.33-2.15.47a38.19,38.19,0,0,0-5.67-76Zm18.4,19.13,6.1-7.46c2.34.57,5.29,4.37,6.53,6.8Z" transform="translate(-77.98 -26.92)"/><path class="cls-2" d="M232.15,505.19l4.14-4.62c1.54-1.65,2.13-2.59,2.13-3.78a2.21,2.21,0,0,0-2.31-2.29,3.47,3.47,0,0,0-2.88,1.83l-1-.81a4.47,4.47,0,0,1,4-2.29,3.39,3.39,0,0,1,3.61,3.43v.05c0,1.65-.79,2.73-2.58,4.62L234.05,505h5.89v1.28h-7.79Z" transform="translate(-77.98 -26.92)"/><path class="cls-2" d="M244.1,499.92v-.15c0-3.85,1.82-6.56,4.66-6.56s4.64,2.68,4.64,6.53v.15c0,3.85-1.82,6.56-4.66,6.56S244.1,503.77,244.1,499.92Zm7.89,0v-.15c0-3.08-1.3-5.32-3.25-5.32s-3.23,2.2-3.23,5.28v.15c0,3.08,1.28,5.32,3.25,5.32S252,503,252,499.92Z" transform="translate(-77.98 -26.92)"/><path class="cls-2" d="M259.29,494.81l-2.09.73-.24-1.19,2.66-1h1v12.91h-1.36Z" transform="translate(-77.98 -26.92)"/><path class="cls-2" d="M271.26,503.28h-5.89l-.26-1,6.23-8.95h1.21v8.8h1.71v1.16h-1.71v3h-1.3Zm0-1.16v-6.64l-4.58,6.64Z" transform="translate(-77.98 -26.92)"/><path class="cls-2" d="M285.23,500.05h4.71v1.38h-4.71Z" transform="translate(-77.98 -26.92)"/><path class="cls-2" d="M300.91,505.19l4.14-4.62c1.54-1.65,2.13-2.59,2.13-3.78a2.21,2.21,0,0,0-2.31-2.29,3.47,3.47,0,0,0-2.88,1.83l-1-.81a4.47,4.47,0,0,1,4-2.29,3.39,3.39,0,0,1,3.61,3.43v.05c0,1.65-.79,2.73-2.58,4.62L302.82,505h5.88v1.28h-7.79Z" transform="translate(-77.98 -26.92)"/><path class="cls-2" d="M312.87,499.92v-.15c0-3.85,1.82-6.56,4.66-6.56s4.64,2.68,4.64,6.53v.15c0,3.85-1.81,6.56-4.66,6.56S312.87,503.77,312.87,499.92Zm7.88,0v-.15c0-3.08-1.3-5.32-3.25-5.32s-3.23,2.2-3.23,5.28v.15c0,3.08,1.28,5.32,3.25,5.32S320.75,503,320.75,499.92Z" transform="translate(-77.98 -26.92)"/><path class="cls-2" d="M328.05,494.81l-2.09.73-.24-1.19,2.66-1h1v12.91h-1.36Z" transform="translate(-77.98 -26.92)"/><path class="cls-2" d="M334.05,504.86l.83-1a4.38,4.38,0,0,0,3,1.36,2.72,2.72,0,0,0,2.79-2.88v-.05a2.58,2.58,0,0,0-2.79-2.68,4.58,4.58,0,0,0-2.24.59l-.88-.61.33-6.14h6.42v1.28h-5.23l-.26,4.09a5,5,0,0,1,2.07-.46,3.7,3.7,0,0,1,4,3.87v.06a4,4,0,0,1-4.2,4.2A5.47,5.47,0,0,1,334.05,504.86Z" transform="translate(-77.98 -26.92)"/><path class="cls-2" d="M144.65,290.49h8.45L164.29,347h-8l-2.25-12.56H143.44L141.19,347h-7.73Zm8.21,36.79-4.11-22.62-4.1,22.62Z" transform="translate(-77.98 -26.92)"/><path class="cls-2" d="M167.43,290.65h9.18c10,0,17.06,5.55,17.06,17.55v.56c0,7.49-3.14,12.4-7.57,15.05L194.63,347H186.1l-7.57-20.61c-.32,0-.72.08-1,.08H175.4V347h-8Zm9.34,28.66c5.31,0,8.94-3.22,8.94-10.46v-.48c0-7.73-3.86-10.3-9.18-10.3H175.4v21.25Z" transform="translate(-77.98 -26.92)"/><path class="cls-2" d="M196.64,345v-8.37c3.54,2.17,6.44,3.3,9.18,3.3,3.38,0,6-1.93,6-5.8V334c0-3.22-1-5.55-6.2-11.75-6.92-8.29-9.42-11.83-9.42-18.19v-.16c0-8.29,5.64-13.77,12.88-13.77a17.34,17.34,0,0,1,8.69,2v8.37c-3.06-1.85-5.23-2.74-7.81-2.74a5.51,5.51,0,0,0-5.8,5.71v.16c0,3.14,1,4.83,6.2,10.95,7.49,8.86,9.42,12.64,9.42,19v.16c0,8.29-5.87,13.84-13.2,13.84A21.29,21.29,0,0,1,196.64,345Z" transform="translate(-77.98 -26.92)"/><path class="cls-2" d="M224.89,290.65h20.85v7.49H232.86v16.74h11.51v7.48H232.86v17.15H246V347H224.89Z" transform="translate(-77.98 -26.92)"/><path class="cls-2" d="M251.85,290.65h7.57l12.24,34.13V290.65h7.73V347h-7.16l-12.64-35.42V347h-7.73Z" transform="translate(-77.98 -26.92)"/><path class="cls-2" d="M295.24,290.49h8.45L314.88,347h-8l-2.25-12.56H294L291.78,347H284Zm8.21,36.79-4.11-22.62-4.1,22.62Z" transform="translate(-77.98 -26.92)"/><path class="cls-2" d="M319.62,290.65h8v48.86H339.1V347H319.62Z" transform="translate(-77.98 -26.92)"/><path class="cls-2" d="M357.45,290.65H365l12.23,34.13V290.65H385V347h-7.16l-12.64-35.42V347h-7.73Z" transform="translate(-77.98 -26.92)"/><path class="cls-2" d="M399.95,324.13l-10.87-33.49h8.29l6.6,23,6.76-23h8.05l-10.87,33.49V347h-8Z" transform="translate(-77.98 -26.92)"/><path class="cls-2" d="M418.54,319.71v-1.77c0-19.48,7.25-27.69,16-27.69a12.37,12.37,0,0,1,6.2,1.37v8.21a10.31,10.31,0,0,0-5.47-1.85c-4.91,0-8.7,5.23-8.7,19.88v1.93c0,15.21,3.78,19.89,8.77,19.89a10.86,10.86,0,0,0,5.55-1.77v7.81a12.54,12.54,0,0,1-6.84,1.69C425.3,347.4,418.54,339,418.54,319.71Z" transform="translate(-77.98 -26.92)"/><circle class="cls-2" cx="265.26" cy="290.39" r="4.39"/><path class="cls-3" d="M497.06,372.17c-.32-.77-.6-1.47-.87-2.13-.58-1.44-1.08-2.68-1.67-4q-2.88-6.32-5.77-12.63c-5-10.93-10.18-22.22-15.07-33.38a4.19,4.19,0,0,1-.13-2.55c5-11.85,10.29-23.85,15.41-35.45q2.87-6.51,5.73-13c.53-1.19,1-2.35,1.45-3.68.24-.65.5-1.35.81-2.15a6.34,6.34,0,0,0-5.92-8.62H457.25q0-5.77,0-11.54c0-11.22,0-22.81.1-34.2.09-7-4-10.22-7.07-12.06-51.3-30.64-103.65-62-155.61-93.29a12.17,12.17,0,0,0-13.66,0L251.4,121.26a28.72,28.72,0,0,0-1.51-6.51c7.69-4.9,7.39-14.36,7.26-18.63-.09-3-.49-6.51-2.69-9.46a13.61,13.61,0,0,0-3.59-3.13,8.75,8.75,0,0,1-1.76-1.37c-1-1.19-1.93-2.48-2.88-3.81a3.49,3.49,0,0,0,1.36-.51,9,9,0,0,0,3.85-7.1c.61-8.06-.79-14.15-4.4-19.15a4.19,4.19,0,0,1-.55-3.38c.1-.51.11-.59.81-.8a3.5,3.5,0,0,0-1-6.85H246a14.76,14.76,0,0,0-2.37.17q0-.35,0-.71c-.36-5.18-3.23-8.92-7.12-9.45A3.5,3.5,0,0,0,233.24,27c-.4,0-.76,0-1.1,0a6.42,6.42,0,0,0-6.17,3.5,3.5,3.5,0,0,0-1.47.73,16.75,16.75,0,0,0-5.56,10.74c-.27,1.79-.45,4.41,1.15,6.56l.22.28a8.85,8.85,0,0,0-2.31,6,28.61,28.61,0,0,0,.08,4.48,4.65,4.65,0,0,1-.63,3.19,12.33,12.33,0,0,0-1.42,10c.69,2.76,2,4.64,3.85,5.56a3.38,3.38,0,0,0,2.52.22L220,81.58A24.34,24.34,0,0,0,213.95,92a21.3,21.3,0,0,0-.37,5.35v.48c.1,5.64,1.19,8.69,4.65,13.06l4.34,5.5,1.57,2c-1.34,2-1,4.84-.5,7.5a21.17,21.17,0,0,0,1.59,4.49c.22.5.44,1,.65,1.5l.79,2a7.27,7.27,0,0,0,.27,2.09l-102,61.16a12.67,12.67,0,0,0-6.57,11.81c.09,11.39.08,23,.06,34.21q0,5.89,0,11.78H84.57a6.34,6.34,0,0,0-5.87,8.73l.84,2.08c.47,1.17.84,2.09,1.24,3q2.69,6.13,5.4,12.26c5.29,12,10.77,24.42,16,36.66a3.59,3.59,0,0,1,0,2.12c-4.33,9.9-8.93,19.94-13.38,29.64q-2.84,6.19-5.66,12.37c-1,2.21-2,4.45-3,6.83-.5,1.18-1,2.43-1.61,3.75a6.34,6.34,0,0,0,5.82,8.85h34.11q0,3.78,0,7.53c0,13,0,25.31-.1,37.82-.06,5.46,2.31,9.54,7.24,12.5,15,8.93,30.09,18,45.47,27.16H147.17l19.41,22.52-19.8,22h45.79v9.33h70.87c.77.48,22.19,15,23.36,15h2.14c1.35,0,22.36-14.74,22.81-15h71.39v-9.33h45l-19.8-22,19.41-22.52H404.57q22.8-13.65,45.54-27.23c5-3,7.28-6.95,7.22-12.48-.13-11.37-.11-22.94-.09-34.14q0-5.71,0-11.41h34a6.34,6.34,0,0,0,5.86-8.76ZM221.43,73.9a4.8,4.8,0,0,1-2-3.28,8.91,8.91,0,0,1,1-7.28,8.13,8.13,0,0,0,1.17-5.47,24.79,24.79,0,0,1-.06-3.93c.11-2.26.84-4,2.74-4.64-.29,1.44,0,2.55.86,3.07s1.79,0,2.47-1.09c1-1.66,1.19-4.38-1.31-4.45a6.05,6.05,0,0,1-.64-.14c-2.79-.41-3.73-1.9-3.21-5.28a13.34,13.34,0,0,1,4.35-8.58L226,35.7l.37.35a4.81,4.81,0,0,0,1-1,11.36,11.36,0,0,0,.75-1.95c1.12-3.23,1.89-3.84,4.81-3.65A3.9,3.9,0,0,0,230,33a24.89,24.89,0,0,0,0,5.47c.21,1.7,1.12,2.08,2.21,1a11.3,11.3,0,0,0,2.07-3.2c.57-1.26.16-1.92-1-2-.21,0-.43,0-.71,0,3.54-2.88,7.22-.39,7.59,5a5.66,5.66,0,0,1-1.1,4.1,7.35,7.35,0,0,0-1.56,4.49,3.91,3.91,0,0,0,.28,1.67c.52,1.08,1.36,1,1.86-.07a7.8,7.8,0,0,0,.36-1c1.39-4.58,2.39-5.45,6.32-5.41A4.17,4.17,0,0,0,243,46.55a7.61,7.61,0,0,0,1.15,6.08c3.5,4.85,4.22,10.67,3.75,16.84a5.56,5.56,0,0,1-2.26,4.43,6.32,6.32,0,0,0-.67-1,2.61,2.61,0,0,1-.57-2.14c.07-3.59-.6-6.89-2.8-9.45a5.31,5.31,0,0,0-.7-.64,4.68,4.68,0,0,0-.53-.32A24.35,24.35,0,0,1,241.69,63c.54,1.63.16,3.17-.76,3.48-1.16.4-2.33-.6-2.55-2.34a35.51,35.51,0,0,1-.13-3.65A14.59,14.59,0,0,0,236,52.36c-1.11-1.61-2.3-2.24-3.8-2.09,0,.07,0,.2,0,.21,2.61,1.18,3.65,3.6,3.38,6.9a48.9,48.9,0,0,1-.91,5.82,2.64,2.64,0,0,1-5.11.72,6,6,0,0,1-.05-6.17c.26-.48.55-.93.86-1.44-1.8.66-3.84,4.61-3.63,7.07.12,1.34.37,2.67.56,4a2.3,2.3,0,0,1-.62,2.39c-.73.54-1.24,0-1.84-.51-1.47-1.24-1.3-2.94-1-4.73l-.33-.11c-.26.88-.54,1.76-.77,2.66a2.06,2.06,0,0,0,0,.94C223.31,70.22,223.34,72.3,221.43,73.9Zm5.81,46.22c1.78-1.39,4.35-1.85,6.66-2.47,1.27-.35,2.66-.26,4-.82-3.41-2.87-6.71-3-10.1.43q-3.38-4.29-6.77-8.57c-3-3.82-3.81-6.14-3.9-10.95a20.38,20.38,0,0,1,.28-5,20.53,20.53,0,0,1,7.3-10.56,42.42,42.42,0,0,1,9.2-4.13c1.76-.62,3.9-.18,5.87-.22-4.18-2.13-8.27-1-13.08.49,2.24-3.12,4.78-9.15,9.65-7.14l.18.08c1.72.88,3.32,4.13,4.4,5.59,1.86,2.52,3.55,5.17,5.56,7.55,1.48,1.76,3.8,2.45,5.22,4.34,1.61,2.15,1.92,4.86,2,7.47.21,6.87-.66,13.8-7.8,16.67-.09.32-.27.59-.2.74q.28.6.52,1.2c.09.22.17.44.25.65s.14.36.21.54.2.61.3.91l.09.28c.11.36.21.72.3,1.09l0,.11q.15.59.27,1.19h0a25.19,25.19,0,0,1,.45,3.62h0a30.31,30.31,0,0,1-1.3,10.08c-2.32,7.89-1.34,15.85.63,23.74,1.05,4.21,1.88,8.49,2.52,12.79.55,3.72.71,7.49,1,10.39-3-4.14-6.75-8.57-9.52-13.55s-4.5-10.3-6.43-15.58c-.56-1.53-.18-3.39-.29-5.1a9.91,9.91,0,0,0-.37-2.14c-.35-1.19-1.3-2.52-1-3.47.23-.72,2-1,3.12-1.37a13.94,13.94,0,0,1,2-.28c-2.78-2.65-4.62-.95-6.46.39l-.45-1.17,6.14-3c-.29-.29-.92-1.29-1.3-1.2-1.91.44-3.77,1.17-5.79,1.84a5.72,5.72,0,0,1-.7-2v0a2.25,2.25,0,0,1,.59-1.83l.07-.08.27-.25.13-.1.32-.23.16-.1.38-.22.1,0c.27-.14.58-.27.91-.41l.35-.14.43-.15.46-.16.46-.14.57-.17.46-.13.75-.19.41-.1,1.28-.3c-2.36-1.73-3.73-1.49-8.85,1.64a32.3,32.3,0,0,1-2.05-5.38C226.75,123.5,226.37,120.8,227.24,120.12ZM145.64,372v-4.68H429c.12,1.67.3,3.07.3,4.46,0,14.67.12,29.35-.14,44a7.8,7.8,0,0,1-3.21,5.8c-25.91,15.54-86,51-86,51L325.28,481h-75.6l-15.4-8.78s-58.83-34.85-84.34-49.77c-3-1.75-4.46-3.53-4.41-6.89C145.77,401.07,145.64,386.55,145.64,372Zm-40.07-10.32L126.69,317l-20.24-42.35H468.28L448,318.59l18.48,43.14ZM317.88,268c.05-1.44.11-2.89.19-4.33.28-5.29,1-10.56,1.52-15.93,3,6.37,2.78,13.1,2.14,20.26Zm111.33-2.15a14.36,14.36,0,0,1-.38,2.15h-96l-4.11-11.68s-3.65-5.46-4.37-5.93a43.58,43.58,0,0,1-3.64-4l-6.55-7.23-4.8-4.11.13.32c2,4.92,1.43,8.16-3.4,11.87-7.34,5.64-12.73,12.84-17.13,20.73h-1.62l4.43-9.84c-5.21,2.48-10.82,4.27-13.84,9.84h-8.84c11.43-10.6,24.88-18.63,39.47-25.35a9.8,9.8,0,0,0-9.33-.92A108.26,108.26,0,0,0,282,250.71c-5.27,3.56-9.76,8.27-14.59,12.49a12.89,12.89,0,0,1-2.59,2c9-11.2,19-21.15,32.31-26.75l-19-13.64c-2.59,2.16-6.59,6.29-6.4,6.54.13-1.89.37-3.77.36-5.66,0-2.9-.08-5.84-3.57-7a1.61,1.61,0,0,1-.82-1c-1.12-3.71-2.19-7.43-3.38-11.54L263.1,206l-4.19-.66c1.82,3.48,2.84,6.43,4.67,8.74,3.91,4.94,3.75,10,2.35,15.82-1.92,7.93-3.1,16.05-4.54,24.1a17.8,17.8,0,0,0,0,3.05l3.67-2.44c-2.85,3.13-5.15,5.71-7.51,8.23q-2.39,2.56-4.51,5.25H145.64V241.58c0-7.34-.24-14.69.15-22a8,8,0,0,1,3.33-5.76q40.19-23.9,80.48-47.66a87.77,87.77,0,0,0,1.57,12.69,57,57,0,0,1,1.33,14,101.88,101.88,0,0,0,1.42,11.79,24.88,24.88,0,0,1,1.43,5.4l5.71-4.64.42.39-9.64,11.46c-.06-.9-.12-1.78-.21-3.06l-4.79,3.43c.33-4.52,2.64-7.57,5.23-10.85l-7.66,5-.61-.32-1.58,2.95c-.58,3.69-.53,7.23,1.28,10.6a12,12,0,0,0,4.29,5,42.62,42.62,0,0,0,4,2.31c-3.56,11.39-.92,22.23,5.32,25.63l-.84-4.17-2.06-8,0-10.92L232,230.64,228,229.05a4.86,4.86,0,0,1-1.21-1.45c4.94,1.51,8.73-1.37,12.37-4.51a37.72,37.72,0,0,0,10.49-15.14c-3.68,4.67-6.74,8.71-10,12.59A14.68,14.68,0,0,1,235.4,224c-.93.49-2.32.11-3.5.12.05-1.15-.37-2.73.23-3.38,4.37-4.79,8.79-9.53,13.49-14,2.89-2.74,6.42-4.79,9.44-7.4,1.56-1.35,2.65-3.24,4.49-5.58-.09,2.35-.17,4.14-.24,6,1,.14,1.85.23,2.56.26a6.45,6.45,0,0,0,1.64-.11L266.8,206c.17-6,0-12.15,5-16.7,1.09-1,.88-3.64,3.34-3.07a6.39,6.39,0,0,0,.69-2.15A9,9,0,0,1,276,182l.17-.17.38-.11,1.15,2.69,1,.36,1-4,.94-.28.81,2.69c3,.56,2.4-1.73,2.71-3.47l1.35-.08,1.32,3.19,2.1-3.22.09,0,2.3,3.59,1.7-2.28.8.26c.41,1.71-.56,5.66,3.09,2.24l5.79,11.42c-3.32-4.21-10-10.33-10.55-9.64-.82-1.14-3.63-1.35-4.35-.27-.59-1.28-1.33,1-5.19.43-.41-1.19-2.25-.09-2.64,1.48l-1-.31c-.45-.94-4.64,3.62-5.67,4.56-4.69,4.22-4.45,9.78-4.51,15.23,2.64-3.85,4.69-8.22,8-11.24s7.78-4.63,11.79-6.88c1.11,2.21.32,3.54-1.63,4.52a69.69,69.69,0,0,0-6.94,3.71c-1.11.72-1.78,2.09-2.66,3.16l.93,1.14c2.09-3.28,4.61-5.25,8.17-3.65.63,5.07-1.87,6.78-6.61,7-3.07.17-5.19,2.61-5.35,5.81a34.15,34.15,0,0,0,.71,8.8c.31,1.4,1.91,3.63,2.83,3.59,2.23-.11,4.44-1.23,6.57-2.14,1.3-.56,2.35-1.9,3.66-2.19,1.58-.35,3.33,0,5.11.13,0-4.7-3.84-3.83-6.67-4.33,0-.31,0-.62,0-.93l4.54-1.4-.09-.69-6.37.74,5.56-3.23-4.43-.17c1-2.85,2.73-4.24,5.24-3.56.92.25,1.67,2.13,2,3.39.57,2.26.75,4.62,1.2,7.54,4-4.5,4.68-9,1.55-10.41-3.86-1.75-4.42-4.55-4.34-8.15l6.14.18.29-.84L289.5,190c5.72.28,10.37,2.12,13.21,7l-.29.29,2.17,6.39-.59,3.19L300.6,215l4.6,16.53,4.14,3.55c-.5-1.24-1.11-3.1-.66-3.49,2.7-2.37.73-4.64.18-6.86-.76-3.08-1.77-6.1-2.67-9.14.39-.22,1.64-5.19,1-8.11,8,0,25.68-1.18,25.68-1.18s-18.11-3.51-25.57-5.17a12.78,12.78,0,0,1-.44-1.51q-.09-1-.21-2c.09-2.62,1.85-4.1,4.57-5.25,3.51-1.48,15.4-8.14,18-9.54-6.37,1-23.09,5.53-25.08,4.2-5.49-3.64,8.61-22.49,11.32-26.95a20.36,20.36,0,0,0,1.67-2.89L298.7,175.92c-3.81,3.82-9.11.16-8.67-4.79.1-1.12-1.15-18.78-1.64-26.47.17,2.72-3.37,20-3.86,25.36-.29,3.12-.57,4.85-3.89,5.86-3.94,1.19-4.85.69-7.39-2.26-.48-.55-9.65-12.73-13.81-18.2,3.05,7.79,6.67,15.15,10.08,22.63,1.11,2.43,0,5.26-1.67,7.17-1.82,2.12-4.43,1.1-6.79.65-3.17-.6-6.39-.9-9.59-1.32l.07-.81c2.73-.32,2.91-2.91,2.63-6.47-.12-1.49-.38-3.85-.74-6.51a6.17,6.17,0,0,0,0-1.4c-.54-3.6-1.2-7.08-1.94-10.38l-.13-.59c-.35-1.49-.7-3-1-4.46l33.76-20c2.5-1.48,4.16-1.53,6.7,0q67.45,40,135,79.83c1.65,1,3.36,3.14,3.39,4.78C429.34,234.31,429.23,250.1,429.21,265.9ZM252,188.1h0c3.47,2.52,8.43,2,11.84,4.73,0,.2,0,.39,0,.58C259.74,191.79,254.64,192.32,252,188.1ZM192.64,504.39H161l14-15.59-14-16.27h32.72q-32.61-19.53-65.26-39c-3-1.79-4.19-3.72-4.15-7,.18-17,.08-34.09.08-51.76H83.93c1.74-4,3.08-7.26,4.53-10.46,6.38-14,12.91-28,19.08-42.1a9.73,9.73,0,0,0,0-7.13c-6.95-16.39-14.22-32.68-21.39-49-.58-1.32-1.09-2.67-2-4.93h40.2v-6c0-15.47.06-30.94-.06-46.41,0-2.79.69-4.65,3.48-6.32q50.68-30.28,101.28-60.67l.27.57.06,2.85a64.73,64.73,0,0,0-.38,13q-42.67,25.6-85.4,51.11c-3,1.81-4.19,3.73-4.15,7,.18,15.47.08,30.95.08,46.42v5.67H96.45c.81,2.11,1.31,3.61,1.94,5.05,5.93,13.5,11.81,27,17.9,40.48,1.42,3.13,1.65,5.79.09,9.06-6.22,13.05-12.06,26.25-18,39.4-.62,1.37-1.12,2.78-1.95,4.82h43.16v5.57c0,15.47.11,30.95-.09,46.42,0,3.28,1.14,5.18,4.15,7q45.82,27.37,91.55,54.85H192.64Zm95.91,24.27h-2.14c-5.22-3.21-9.42-5.37-14.63-8.6h31.47C294.36,525.48,289.08,528.27,288.55,528.66Zm90.35-12.84H196.8V485.18H378.9Zm71.62-141.3v5.55c0,15.47-.09,30.94.08,46.41,0,3.22-1.07,5.13-4.13,7Q413.79,453,381.16,472.53h32.71l-14,16.27,14,15.59H383.06V481H339.61q45.4-27.27,90.9-54.4c3.78-2.25,5-4.6,4.94-8.51-.23-16.74-.1-33.48-.1-51.19h43.21c-6.86-15.09-13.26-29.43-19.95-43.66-1.49-3.18-1.72-5.85-.16-9.07,3.47-7.16,6.53-14.49,9.72-21.76,3.42-7.81,6.8-15.65,10.52-24.23H435.35v-5.74c0-15.47-.07-30.95.06-46.42a6.39,6.39,0,0,0-3.55-6.3q-70.36-42-140.57-84.23c-2.72-1.64-4.63-1.91-7.54-.16q-17.33,10.43-34.68,20.84c-.1-1.28-.14-2.51-.12-3.7a75.17,75.17,0,0,1,1.25-8.44,37.07,37.07,0,0,0,1.15-5.64l32.52-19.53c2.63-1.58,4.47-1.57,7.13,0q77.73,46.76,155.63,93.29c2.85,1.7,4,3.43,4,6.54-.19,15.47-.08,30.94-.08,46.41v5.75h40.12c-.91,2.36-1.46,4-2.14,5.54-7.09,16.18-14.32,32.3-21.18,48.55a10.3,10.3,0,0,0,.16,7.56c6.77,15.43,13.9,30.74,20.89,46.09.79,1.73,1.46,3.5,2.44,5.89Z" transform="translate(-77.98 -26.92)"/><path class="cls-3" d="M227.68,109.14c2.47-3.38,7.2,1.69,9.63-2.56C233.14,104.74,229.35,105.74,227.68,109.14Z" transform="translate(-77.98 -26.92)"/><path class="cls-3" d="M237.28,110.81c-4.69-1.63-9.11-.31-10.23,3.29,4.21-1.9,8.28-2,12.28.16C240.21,112,240.11,111.79,237.28,110.81Z" transform="translate(-77.98 -26.92)"/><path class="cls-3" d="M238.65,126.74c-.46-2.24-.45-4.35-1.41-5.83-.35-.53-3.61-.07-4.5.89-1.21,1.32-1.41,3.55-2.3,6.14,2.38-.49,3.37-.74,4.36-.88S236.94,126.88,238.65,126.74Z" transform="translate(-77.98 -26.92)"/><path class="cls-3" d="M249,91.43c-.92-4.87-7.78-8.7-14.77-8.36-6.67.33-13.65,4.53-13.64,10.26C230.46,85.65,239.41,85,249,91.43Z" transform="translate(-77.98 -26.92)"/><path class="cls-2" d="M371.31,182.71,318.6,240.06a74.19,74.19,0,0,0,5.85,5.57Z" transform="translate(-77.98 -26.92)"/><path class="cls-2" d="M398.53,205l-67.81,46.33a57.23,57.23,0,0,1,5,6.07Z" transform="translate(-77.98 -26.92)"/><path class="cls-2" d="M423.52,227.89,339.86,264a56.62,56.62,0,0,1,3.16,7.07Z" transform="translate(-77.98 -26.92)"/><path class="cls-3" d="M225.56,207.33l-22.67-24.62L223,209.78C223.86,208.94,224.69,208.12,225.56,207.33Z" transform="translate(-77.98 -26.92)"/><path class="cls-3" d="M228.36,241l-52.69-36,50.86,42A57.39,57.39,0,0,1,228.36,241Z" transform="translate(-77.98 -26.92)"/><path class="cls-3" d="M222,259.38l-71.3-31.49,69.86,38.51A56.64,56.64,0,0,1,222,259.38Z" transform="translate(-77.98 -26.92)"/><path class="cls-4" d="M265.85,414.36c.51-1,.92-1.74,1.26-2.32l-10.53.57,8.76,2.73C265.44,415.13,265.62,414.79,265.85,414.36Z" transform="translate(-77.98 -26.92)"/><path class="cls-4" d="M271.25,417.18l.12-.19c.4-.7,1.52-3.27,2.54-5l-4.14-.08-.55,0a35.76,35.76,0,0,0-1.83,3.24l-.37.7Z" transform="translate(-77.98 -26.92)"/><path class="cls-4" d="M288,384.45a38.33,38.33,0,0,0-34.61,21.9l14.72-.77,8.73,9.43,2,.12-3.16,4.48,1.17,2.1-1.58.42-2.16.57-5-2.74-2.68-1.47-1.52-.83-9-5-3.86.21a38.29,38.29,0,1,0,37-28.46Zm-6.73,30.39-2.09-.26-1.76-.22-.09-.11h0l-9.42-11.52h0l-5.62-6.88,11.51,9.42,11.66-.61-.36,5.24,1,1.1-5.24.28Z" transform="translate(-77.98 -26.92)"/><path class="cls-2" d="M263.86,417.66l1.52.83,2.68,1.47,5,2.74,2.16-.57,1.58-.42-1.17-2.1,3.16-4.48-2-.12-8.73-9.43-14.72.77a37.86,37.86,0,0,0-2.4,6.56l3.86-.21Zm5.35-5.73.55,0,4.14.08c-1,1.73-2.13,4.3-2.54,5l-.12.19L267,415.86l.37-.7A35.76,35.76,0,0,1,269.21,411.92Zm-2.11.11c-.34.59-.74,1.34-1.26,2.32-.22.43-.4.77-.52,1l-8.76-2.73Z" transform="translate(-77.98 -26.92)"/><polygon class="cls-2" points="207.1 382.99 207.46 377.75 195.8 378.36 184.29 368.94 189.91 375.82 189.91 375.82 199.33 387.34 199.33 387.34 199.42 387.44 201.17 387.66 203.26 387.92 202.82 384.37 208.06 384.09 207.1 382.99"/><path class="cls-3" d="M286.05,395.76l.09-1.32c-.94,0-18.82-.29-23.93,0-.4.36-.79.74-1.18,1.12Z" transform="translate(-77.98 -26.92)"/><path class="cls-3" d="M242.44,412.94a46,46,0,0,1,1.47-5.27l0-.13q.29-.85.62-1.68h0c-1.79.06-3.59,0-5.68,0V395.24H250.4c.29-.39.58-.77.88-1.15-3.47-.13-8.28-.28-10.22-.31-3.52,0-3.48,0-3.63,3.34s-.38,7.07-.58,10.6l-.69.41c-.81-1-2.24-1.88-2.3-2.87a67.64,67.64,0,0,1,.55-8.57,33.16,33.16,0,0,0-2.08,4.32c-.7,2.28-3.42,3.67-5.51,2.54-.36-.19-.79-.85-.7-1.16.14-.47.66-1.11,1.08-1.15a15.35,15.35,0,0,1,3.05.36c-1.46-1.53-2.75-2.29-4.41-1a2.93,2.93,0,0,0-1,4.06c.9,1.53,2.4,2.87,4.22,1.85,2.6-1.44,3.64.17,4.52,1.94a31,31,0,0,1,1.51,4.52h7.3Z" transform="translate(-77.98 -26.92)"/></g></svg>